<svg width="158" height="56" viewBox="0 0 158 56" fill="none" xmlns="http://www.w3.org/2000/svg">
<path d="M0 16.8C0 7.52162 7.52162 0 16.8 0H39.2C48.4784 0 56 7.52162 56 16.8V39.2C56 48.4784 48.4784 56 39.2 56H16.8C7.52162 56 0 48.4784 0 39.2V16.8Z" fill="#245949"/>
<path d="M25.2 19.6001C25.2 20.6249 24.9242 21.5867 24.444 22.4141L28 26.0191L37.4192 16.5999C37.9443 16.0749 38.6564 15.7801 39.3988 15.7801C40.1413 15.7801 40.8533 16.0749 41.3784 16.5999L24.4244 33.5539C25.1167 34.728 25.357 36.1143 25.1003 37.4529C24.8436 38.7915 24.1074 39.9906 23.0299 40.8253C21.9523 41.66 20.6074 42.073 19.247 41.987C17.8867 41.901 16.6045 41.3218 15.6407 40.3579C14.6769 39.3941 14.0977 38.1119 14.0117 36.7516C13.9256 35.3913 14.3387 34.0463 15.1734 32.9688C16.0081 31.8912 17.2071 31.1551 18.5458 30.8984C19.8844 30.6417 21.2707 30.882 22.4448 31.5743L26.0204 28.0001L22.4448 24.4245C21.3811 25.0518 20.1398 25.3099 18.9142 25.1587C17.6885 25.0075 16.5473 24.4553 15.668 23.5882C14.7886 22.7211 14.2206 21.5876 14.0523 20.3642C13.8839 19.1408 14.1247 17.8961 14.7372 16.8237C15.3496 15.7513 16.2993 14.9115 17.4386 14.4348C18.5778 13.9581 19.8427 13.8714 21.0363 14.1882C22.2299 14.5049 23.2854 15.2073 24.0384 16.1861C24.7915 17.1649 25.1998 18.3651 25.2 19.6001ZM22.4 19.6001C22.4 18.8574 22.105 18.1453 21.5799 17.6202C21.0548 17.0951 20.3426 16.8001 19.6 16.8001C18.8574 16.8001 18.1452 17.0951 17.6201 17.6202C17.095 18.1453 16.8 18.8574 16.8 19.6001C16.8 20.3427 17.095 21.0549 17.6201 21.58C18.1452 22.1051 18.8574 22.4001 19.6 22.4001C20.3426 22.4001 21.0548 22.1051 21.5799 21.58C22.105 21.0549 22.4 20.3427 22.4 19.6001ZM41.3784 39.3989C40.8533 39.9238 40.1413 40.2187 39.3988 40.2187C38.6564 40.2187 37.9443 39.9238 37.4192 39.3989L29.9754 31.9565L31.9564 29.9755L41.3784 39.3989ZM33.6 26.6001H36.4V29.4001H33.6V26.6001ZM39.2 26.6001H42V29.4001H39.2V26.6001ZM19.6 26.6001H22.4V29.4001H19.6V26.6001ZM14 26.6001H16.8V29.4001H14V26.6001ZM19.6 39.2001C20.3426 39.2001 21.0548 38.9051 21.5799 38.38C22.105 37.8549 22.4 37.1427 22.4 36.4001C22.4 35.6574 22.105 34.9453 21.5799 34.4202C21.0548 33.8951 20.3426 33.6001 19.6 33.6001C18.8574 33.6001 18.1452 33.8951 17.6201 34.4202C17.095 34.9453 16.8 35.6574 16.8 36.4001C16.8 37.1427 17.095 37.8549 17.6201 38.38C18.1452 38.9051 18.8574 39.2001 19.6 39.2001Z" fill="white"/>
<path d="M80.764 38.336C79.196 38.336 77.6933 38.1307 76.256 37.72C74.8187 37.2907 73.6613 36.74 72.784 36.068L74.324 32.652C75.164 33.2493 76.1533 33.744 77.292 34.136C78.4493 34.5093 79.616 34.696 80.792 34.696C81.688 34.696 82.4067 34.612 82.948 34.444C83.508 34.2573 83.9187 34.0053 84.18 33.688C84.4413 33.3707 84.572 33.0067 84.572 32.596C84.572 32.0733 84.3667 31.6627 83.956 31.364C83.5453 31.0467 83.004 30.7947 82.332 30.608C81.66 30.4027 80.9133 30.216 80.092 30.048C79.2893 29.8613 78.4773 29.6373 77.656 29.376C76.8533 29.1147 76.116 28.7787 75.444 28.368C74.772 27.9573 74.2213 27.416 73.792 26.744C73.3813 26.072 73.176 25.2133 73.176 24.168C73.176 23.048 73.4747 22.0307 74.072 21.116C74.688 20.1827 75.6027 19.4453 76.816 18.904C78.048 18.344 79.588 18.064 81.436 18.064C82.668 18.064 83.8813 18.2133 85.076 18.512C86.2707 18.792 87.3253 19.2213 88.24 19.8L86.84 23.244C85.9253 22.7213 85.0107 22.3387 84.096 22.096C83.1813 21.8347 82.2853 21.704 81.408 21.704C80.5307 21.704 79.812 21.8067 79.252 22.012C78.692 22.2173 78.2907 22.488 78.048 22.824C77.8053 23.1413 77.684 23.5147 77.684 23.944C77.684 24.448 77.8893 24.8587 78.3 25.176C78.7107 25.4747 79.252 25.7173 79.924 25.904C80.596 26.0907 81.3333 26.2773 82.136 26.464C82.9573 26.6507 83.7693 26.8653 84.572 27.108C85.3933 27.3507 86.14 27.6773 86.812 28.088C87.484 28.4987 88.0253 29.04 88.436 29.712C88.8653 30.384 89.08 31.2333 89.08 32.26C89.08 33.3613 88.772 34.3693 88.156 35.284C87.54 36.1987 86.616 36.936 85.384 37.496C84.1707 38.056 82.6307 38.336 80.764 38.336ZM98.0315 38.224C96.2581 38.224 94.8768 37.776 93.8875 36.88C92.8981 35.9653 92.4035 34.612 92.4035 32.82V19.604H96.7715V32.764C96.7715 33.3987 96.9395 33.8933 97.2755 34.248C97.6115 34.584 98.0688 34.752 98.6475 34.752C99.3381 34.752 99.9261 34.5653 100.411 34.192L101.587 37.272C101.139 37.5893 100.598 37.832 99.9635 38C99.3475 38.1493 98.7035 38.224 98.0315 38.224ZM90.0795 26.632V23.272H100.523V26.632H90.0795ZM104.039 38V22.936H108.407V38H104.039ZM106.223 20.836C105.421 20.836 104.767 20.6027 104.263 20.136C103.759 19.6693 103.507 19.0907 103.507 18.4C103.507 17.7093 103.759 17.1307 104.263 16.664C104.767 16.1973 105.421 15.964 106.223 15.964C107.026 15.964 107.679 16.188 108.183 16.636C108.687 17.0653 108.939 17.6253 108.939 18.316C108.939 19.044 108.687 19.6507 108.183 20.136C107.698 20.6027 107.045 20.836 106.223 20.836ZM118.621 38.224C116.848 38.224 115.467 37.776 114.477 36.88C113.488 35.9653 112.993 34.612 112.993 32.82V19.604H117.361V32.764C117.361 33.3987 117.529 33.8933 117.865 34.248C118.201 34.584 118.659 34.752 119.237 34.752C119.928 34.752 120.516 34.5653 121.001 34.192L122.177 37.272C121.729 37.5893 121.188 37.832 120.553 38C119.937 38.1493 119.293 38.224 118.621 38.224ZM110.669 26.632V23.272H121.113V26.632H110.669ZM131.444 38.224C129.82 38.224 128.374 37.8973 127.104 37.244C125.835 36.572 124.836 35.648 124.108 34.472C123.399 33.296 123.044 31.9613 123.044 30.468C123.044 28.956 123.399 27.6213 124.108 26.464C124.836 25.288 125.835 24.3733 127.104 23.72C128.374 23.048 129.82 22.712 131.444 22.712C133.031 22.712 134.412 23.048 135.588 23.72C136.764 24.3733 137.632 25.316 138.192 26.548L134.804 28.368C134.412 27.6587 133.918 27.136 133.32 26.8C132.742 26.464 132.107 26.296 131.416 26.296C130.67 26.296 129.998 26.464 129.4 26.8C128.803 27.136 128.327 27.612 127.972 28.228C127.636 28.844 127.468 29.5907 127.468 30.468C127.468 31.3453 127.636 32.092 127.972 32.708C128.327 33.324 128.803 33.8 129.4 34.136C129.998 34.472 130.67 34.64 131.416 34.64C132.107 34.64 132.742 34.4813 133.32 34.164C133.918 33.828 134.412 33.296 134.804 32.568L138.192 34.416C137.632 35.6293 136.764 36.572 135.588 37.244C134.412 37.8973 133.031 38.224 131.444 38.224ZM149.781 22.712C150.976 22.712 152.04 22.9547 152.973 23.44C153.925 23.9067 154.672 24.6347 155.213 25.624C155.755 26.5947 156.025 27.8453 156.025 29.376V38H151.657V30.048C151.657 28.8347 151.387 27.9387 150.845 27.36C150.323 26.7813 149.576 26.492 148.605 26.492C147.915 26.492 147.289 26.6413 146.729 26.94C146.188 27.22 145.759 27.6587 145.441 28.256C145.143 28.8533 144.993 29.6187 144.993 30.552V38H140.625V17.224H144.993V27.108L144.013 25.848C144.555 24.84 145.329 24.0653 146.337 23.524C147.345 22.9827 148.493 22.712 149.781 22.712Z" fill="#245949"/>
</svg>
